<?xml version="1.0" encoding="UTF-8" standalone="no"?>
<!DOCTYPE svg PUBLIC "-//W3C//DTD SVG 1.1//EN" "http://www.w3.org/Graphics/SVG/1.1/DTD/svg11.dtd">
<svg width="100%" height="100%" viewBox="0 0 1124 1024" version="1.1" xmlns="http://www.w3.org/2000/svg" xmlns:xlink="http://www.w3.org/1999/xlink" xml:space="preserve" xmlns:serif="http://www.serif.com/" style="fill-rule:evenodd;clip-rule:evenodd;stroke-linejoin:round;stroke-miterlimit:2;">
    <g transform="matrix(1,0,0,1,-176,-228)">
        <g transform="matrix(4.05405,0,0,6.81818,770.27,1431.82)">
            <g id="logo" transform="matrix(1,0,0,1,-10.8533,0)">
                <g transform="matrix(4,0,0,2.37838,589.733,305.886)">
                    <g transform="matrix(0.493333,0,0,0.493333,-149.793,-171.273)">
                        <g transform="matrix(1,0,0,1,-64,-64)">
                            <path id="rect4" d="M123.45,31.91C123.45,16.968 111.319,4.837 96.377,4.837L31.623,4.837C16.681,4.837 4.55,16.968 4.55,31.91L4.55,96.094C4.55,111.036 16.681,123.167 31.623,123.167L96.377,123.167C111.319,123.167 123.45,111.036 123.45,96.094L123.45,31.91Z" style="fill:rgb(0,43,52);"/>
                            <g id="g14" transform="matrix(1,0,0,1,249.209,50.1687)">
                                <g id="path8" transform="matrix(0.751909,0.659267,-0.659267,0.751909,0,0)">
                                    <path d="M-156.95,133.24C-156.95,141.645 -164.662,148.565 -174.045,148.581C-183.429,148.596 -191.169,141.701 -191.203,133.296C-191.237,124.891 -183.554,117.945 -174.17,117.899C-164.786,117.853 -157.018,124.723 -156.95,133.128" style="fill:rgb(134,200,200);fill-rule:nonzero;"/>
                                </g>
                                <ellipse id="ellipse10" cx="-174.02" cy="30.698" rx="38.706" ry="30.241" style="fill:rgb(134,200,200);"/>
                                <g id="ellipse12" transform="matrix(0.98259,-0.18578,0.15255,0.9883,0,0)">
                                    <ellipse cx="-172.09" cy="-55.008" rx="16.385" ry="10.568" style="fill:rgb(134,200,200);"/>
                                </g>
                            </g>
                        </g>
                    </g>
                </g>
                <g transform="matrix(8.25,0,0,4.83108,1281.16,769.556)">
                    <g transform="matrix(0.0154167,0,0,0.0154167,-146.032,-173.617)">
                        <g transform="matrix(1,0,0,1,-512,-512)">
                            <path d="M969.6,351.25C963.867,337.35 957.4,323.733 950.2,310.4C946.133,302.833 941.833,295.367 937.3,288C917.733,256.3 893.883,226.367 865.75,198.2C773.583,106.033 662.317,59.95 531.95,59.95C401.617,59.95 290.367,106.033 198.2,198.2C106.033,290.367 59.95,401.617 59.95,531.95C59.95,662.317 106.033,773.583 198.2,865.75C290.367,957.883 401.617,1003.95 531.95,1003.95C662.317,1003.95 773.583,957.883 865.75,865.75C916.517,814.95 953.3,758.367 976.1,696C994.667,645.167 1003.95,590.483 1003.95,531.95C1003.95,487.05 998.483,444.4 987.55,404C986.317,399.433 985.017,394.9 983.65,390.4C979.55,377.1 974.867,364.05 969.6,351.25Z" style="fill-opacity:0.09;fill-rule:nonzero;"/>
                            <path d="M969.7,392C968.533,387.433 967.317,382.9 966.05,378.4C965.034,374.876 963.967,371.36 962.85,367.85C961.202,362.552 959.452,357.285 957.6,352.05C951.1,333.683 943.383,315.8 934.45,298.4C930.583,290.833 926.483,283.367 922.15,276C901.717,241.333 876.267,208.75 845.8,178.25C773.133,105.583 688.583,61.567 592.15,46.2C575.817,43.6 559.133,41.817 542.1,40.85C532.167,40.283 522.133,40 512,40C502.6,40 493.3,40.25 484.1,40.75C365.733,46.883 263.783,92.717 178.25,178.25C86.083,270.417 40,381.667 40,512C40,642.367 86.083,753.633 178.25,845.8C234.777,902.305 298.477,941.488 369.35,963.35C405.709,974.559 443.959,981.209 484.1,983.3L484.5,983.3C492.6,983.7 500.767,983.933 509,984L512,984C522.167,984 532.2,983.733 542.1,983.2C544.433,983.067 546.75,982.917 549.05,982.75C569.083,981.317 588.65,978.75 607.75,975.05C615.617,973.517 623.417,971.8 631.15,969.9C711.55,949.867 783.1,908.5 845.8,845.8C894.4,797.167 930.183,743.233 953.15,684C971.65,636.267 981.833,585.1 983.7,530.5C983.9,524.367 984,518.2 984,512L984,509C983.767,468.133 979,429.133 969.7,392Z" style="fill:rgb(29,29,29);fill-rule:nonzero;"/>
                            <path d="M983.35,538.9L681,236.85C563.587,326.497 476.62,428.247 420.1,542.1L444.1,542.1L444.1,646.15L378,646.15C363.126,692.893 352.793,741.443 347,791.8L537.3,983.45C538.899,983.37 540.499,983.286 542.1,983.2C544.433,983.067 546.75,982.917 549.05,982.75C569.083,981.317 588.65,978.75 607.75,975.05C615.617,973.517 623.417,971.8 631.15,969.9C711.55,949.867 783.1,908.5 845.8,845.8C894.4,797.167 930.183,743.233 953.15,684C970.699,638.721 980.765,590.355 983.35,538.9Z" style="fill-opacity:0.2;fill-rule:nonzero;"/>
                            <g transform="matrix(0.241852,0,0,0.241852,311.45,211.15)">
                                <path d="M800.7,2245.5C822.533,2193.87 833.45,2139.82 833.45,2083.35L833.45,1666.7L416.8,1666.7C360.333,1666.7 306.283,1677.62 254.65,1699.45C204.817,1720.55 160.683,1750.33 122.25,1788.8C83.783,1827.23 54,1871.37 32.9,1921.2C11.067,1972.83 0.15,2026.88 0.15,2083.35C0.15,2139.82 11.067,2193.87 32.9,2245.5C54,2295.33 83.783,2339.48 122.25,2377.95C160.683,2416.38 204.817,2446.15 254.65,2467.25C306.25,2489.08 360.3,2500 416.8,2500C473.267,2500 527.317,2489.08 578.95,2467.25C628.783,2446.15 672.933,2416.38 711.4,2377.95C749.833,2339.48 779.6,2295.33 800.7,2245.5Z" style="fill:rgb(10,207,131);fill-rule:nonzero;"/>
                                <path d="M254.65,866.1C204.817,887.2 160.683,916.983 122.25,955.45C83.783,993.883 54,1038.02 32.9,1087.85C11.067,1139.48 0.15,1193.53 0.15,1250C0.15,1306.47 11.067,1360.52 32.9,1412.15C54,1461.98 83.783,1506.13 122.25,1544.6C160.683,1583.07 204.817,1612.85 254.65,1633.95C306.283,1655.78 360.333,1666.7 416.8,1666.7L833.45,1666.7L833.45,833.35L416.8,833.35C360.333,833.35 306.283,844.267 254.65,866.1Z" style="fill:rgb(162,89,255);fill-rule:nonzero;"/>
                                <path d="M254.65,32.75C204.817,53.85 160.683,83.633 122.25,122.1C83.783,160.567 54,204.717 32.9,254.55C11.067,306.183 0.15,360.233 0.15,416.7C0.15,473.167 11.067,527.217 32.9,578.85C54,628.683 83.783,672.833 122.25,711.3C160.683,749.733 204.817,779.5 254.65,800.6C306.25,822.433 360.3,833.35 416.8,833.35L833.45,833.35L833.45,-0L416.8,-0C360.333,-0 306.283,10.917 254.65,32.75Z" style="fill:rgb(242,78,30);fill-rule:nonzero;"/>
                                <path d="M1544.75,122.1C1506.28,83.633 1462.13,53.85 1412.3,32.75C1360.67,10.917 1306.62,0 1250.15,0L833.45,0L833.45,833.35L1250.15,833.35C1306.62,833.35 1360.67,822.433 1412.3,800.6C1462.13,779.5 1506.28,749.733 1544.75,711.3C1583.18,672.833 1612.95,628.683 1634.05,578.85C1655.88,527.217 1666.8,473.167 1666.8,416.7C1666.8,360.2 1655.88,306.15 1634.05,254.55C1612.95,204.717 1583.18,160.567 1544.75,122.1Z" style="fill:rgb(255,114,98);fill-rule:nonzero;"/>
                                <path d="M1544.75,955.45C1506.28,916.983 1462.13,887.2 1412.3,866.1C1360.67,844.267 1306.62,833.35 1250.15,833.35C1193.68,833.35 1139.63,844.267 1088,866.1C1038.17,887.2 994.017,916.983 955.55,955.45C917.083,993.883 887.3,1038.02 866.2,1087.85C844.367,1139.48 833.45,1193.53 833.45,1250C833.45,1306.47 844.367,1360.52 866.2,1412.15C887.3,1461.98 917.083,1506.13 955.55,1544.6C994.017,1583.07 1038.17,1612.85 1088,1633.95C1139.63,1655.78 1193.68,1666.7 1250.15,1666.7C1306.62,1666.7 1360.67,1655.78 1412.3,1633.95C1462.13,1612.85 1506.28,1583.07 1544.75,1544.6C1583.18,1506.13 1612.95,1461.98 1634.05,1412.15C1655.88,1360.52 1666.8,1306.47 1666.8,1250C1666.8,1193.5 1655.88,1139.45 1634.05,1087.85C1612.95,1038.02 1583.18,993.883 1544.75,955.45Z" style="fill:rgb(26,188,254);fill-rule:nonzero;"/>
                            </g>
                        </g>
                    </g>
                </g>
            </g>
        </g>
    </g>
</svg>
